<?xml version="1.0" encoding="UTF-8"?>
<svg width="1024" height="1024" version="1.1" viewBox="0 0 270.93 270.93" xmlns="http://www.w3.org/2000/svg">
 <path d="m-2.5e-6 -2.5e-6v270.93h270.93v-270.93z" fill="#0083c3" stroke-width=".26458" style="mix-blend-mode:normal"/>
 <g fill="#fff" fill-opacity=".25">
  <g transform="matrix(.12402 0 0 .12402 71.967 73.674)" stroke-width="4.7887">
   <path d="m405.33 234.66v256h469.33v-256z" style="mix-blend-mode:normal"/>
   <path d="m661.33 533.33v256h213.33v-256z" style="mix-blend-mode:normal"/>
   <path d="m405.33 533.33v256h213.33v-256z" style="mix-blend-mode:normal"/>
   <path d="m149.33 234.66v554.67h213.33v-554.67z" style="mix-blend-mode:normal"/>
  </g>
  <g stroke-width=".26458" aria-label="Docking">
   <path d="m100.07 182.94q0 2.7805-1.5208 4.1938-1.5054 1.3979-4.2091 1.3979h-3.057v-10.968h3.3796q1.6437 0 2.8573 0.61447 1.2289 0.61446 1.8895 1.8127 0.66055 1.1982 0.66055 2.9494zm-1.4594 0.0461q0-2.1967-1.0907-3.2106-1.0753-1.0292-3.057-1.0292h-1.7973v8.6026h1.4901q4.4549 0 4.4549-4.3627z"/>
   <path d="m114.84 184.4q0 2.0431-1.0446 3.1645-1.0292 1.1214-2.7958 1.1214-1.0907 0-1.9509-0.49158-0.84489-0.50693-1.3365-1.4594-0.49158-0.96778-0.49158-2.335 0-2.0431 1.0139-3.1491 1.0292-1.106 2.8112-1.106 1.106 0 1.9663 0.50694 0.86026 0.49157 1.3365 1.444 0.49158 0.93706 0.49158 2.3042zm-6.2215 0q0 1.4594 0.56838 2.3196 0.58374 0.84489 1.8434 0.84489 1.2443 0 1.828-0.84489 0.58374-0.86025 0.58374-2.3196 0-1.4594-0.58374-2.2889-0.58375-0.82953-1.8434-0.82953t-1.828 0.82953-0.56838 2.2889z"/>
   <path d="m125.64 188.69q-1.106 0-1.9509-0.44549-0.84489-0.44549-1.3365-1.3826-0.47622-0.93707-0.47622-2.3964 0-1.5208 0.49158-2.4732 0.50693-0.95243 1.3826-1.3979t1.9817-0.44549q0.61447 0 1.1982 0.13826 0.59911 0.12289 0.96779 0.30723l-0.41477 1.1214q-0.36868-0.13826-0.86025-0.26115-0.49158-0.1229-0.9217-0.1229-2.4272 0-2.4272 3.1184 0 1.4901 0.58374 2.2889 0.59911 0.78345 1.7666 0.78345 0.66055 0 1.1828-0.13826 0.5223-0.13825 0.95242-0.33795v1.1982q-0.41476 0.21506-0.9217 0.3226-0.49157 0.12289-1.1982 0.12289z"/>
   <path d="m136.4 176.86v6.0986q0 0.24579-0.0307 0.6452-0.0154 0.3994-0.0307 0.69127h0.0614q0.0922-0.12289 0.27651-0.35332 0.18434-0.23042 0.36868-0.46085 0.19971-0.24578 0.33796-0.3994l2.6268-2.7805h1.5823l-3.3335 3.5178 3.5639 4.716h-1.6283l-2.8573-3.8404-0.93707 0.81417v3.0262h-1.3365v-11.675z"/>
   <path d="m149.32 177.22q0.30724 0 0.53766 0.21506 0.24579 0.1997 0.24579 0.64519t-0.24579 0.66056q-0.23042 0.1997-0.53766 0.1997-0.33795 0-0.56838-0.1997-0.23042-0.21507-0.23042-0.66056t0.23042-0.64519q0.23043-0.21506 0.56838-0.21506zm0.66056 3.0877v8.2339h-1.3518v-8.2339z"/>
   <path d="m161.92 180.15q1.4747 0 2.2274 0.722 0.75272 0.722 0.75272 2.3043v5.3612h-1.3365v-5.2691q0-1.9817-1.8434-1.9817-1.3672 0-1.8895 0.76808-0.5223 0.76809-0.5223 2.2121v4.2706h-1.3518v-8.2339h1.0907l0.1997 1.1214h0.0768q0.39941-0.64519 1.106-0.95242 0.70664-0.3226 1.4901-0.3226z"/>
   <path d="m175.73 180.15q0.81417 0 1.4594 0.30724 0.66055 0.30723 1.1214 0.93706h0.0768l0.18434-1.0907h1.0753v8.3721q0 1.7666-0.90634 2.6576-0.89098 0.89098-2.7805 0.89098-1.8127 0-2.9648-0.5223v-1.2443q1.2136 0.6452 3.0416 0.6452 1.06 0 1.6591-0.62983 0.61447-0.61447 0.61447-1.6898v-0.3226q0-0.18434 0.0154-0.52229 0.0154-0.35332 0.0307-0.49158h-0.0615q-0.82953 1.2443-2.55 1.2443-1.5976 0-2.504-1.1214-0.89098-1.1214-0.89098-3.1338 0-1.9663 0.89098-3.1184 0.90634-1.1675 2.4886-1.1675zm0.18434 1.1368q-1.0292 0-1.5976 0.82953-0.56838 0.81417-0.56838 2.335t0.55302 2.335q0.55302 0.79881 1.6437 0.79881 1.2443 0 1.8127-0.66056 0.56838-0.67591 0.56838-2.166v-0.32259q0-1.6744-0.58374-2.4118-0.58375-0.73736-1.828-0.73736z"/>
  </g>
  <g stroke-width=".26458" aria-label="Qt Advanced ">
   <path d="m100.61 89.668q0 2.0124-0.81417 3.441-0.79881 1.4133-2.3811 1.9356l2.6269 2.7344h-1.9817l-2.1199-2.4732q-0.09217 0-0.1997 0-0.09217 0.01536-0.18434 0.01536-1.7051 0-2.8419-0.70664-1.1214-0.70664-1.6744-1.9817-0.55302-1.275-0.55302-2.9802 0-1.6744 0.55302-2.9341 0.55302-1.275 1.6744-1.9817 1.1368-0.70664 2.8573-0.70664 1.6437 0 2.7651 0.70664 1.1214 0.69128 1.6898 1.9663 0.58374 1.2597 0.58374 2.9648zm-8.664 0q0 2.0738 0.87562 3.272 0.87562 1.1829 2.7344 1.1829 1.8588 0 2.719-1.1829 0.87562-1.1982 0.87562-3.272 0-2.0738-0.86026-3.2413-0.86026-1.1829-2.719-1.1829-1.8741 0-2.7497 1.1829-0.87562 1.1675-0.87562 3.2413z"/>
   <path d="m105.6 94.215q0.30723 0 0.62983-0.04609 0.32259-0.04609 0.52229-0.12289v1.0292q-0.21506 0.10753-0.61446 0.16898-0.39941 0.07681-0.76809 0.07681-0.64519 0-1.1982-0.21506-0.53766-0.23042-0.87562-0.78345-0.33796-0.55302-0.33796-1.5515v-4.7929h-1.1675v-0.64519l1.1829-0.53766 0.53766-1.7512h0.7988v1.8895h2.3811v1.0446h-2.3811v4.7621q0 0.75272 0.35332 1.1214 0.36868 0.35332 0.93707 0.35332z"/>
   <path d="m119.46 95.168-1.3211-3.3949h-4.3474l-1.3058 3.3949h-1.3979l4.2859-11.014h1.2443l4.2706 11.014zm-1.7359-4.6239-1.2289-3.3181q-0.0461-0.12289-0.15362-0.44549-0.10753-0.3226-0.21507-0.66055-0.0922-0.35332-0.15361-0.53766-0.1229 0.47621-0.26115 0.93706-0.12289 0.44549-0.21507 0.70664l-1.2443 3.3181z"/>
   <path d="m125.13 95.321q-1.5362 0-2.4579-1.06-0.9217-1.0753-0.9217-3.1952t0.9217-3.1952q0.93706-1.0907 2.4732-1.0907 0.95243 0 1.5515 0.35332 0.61447 0.35332 0.99851 0.86026h0.0922q-0.0307-0.1997-0.0614-0.58374-0.0307-0.3994-0.0307-0.62983v-3.2874h1.3518v11.675h-1.0907l-0.1997-1.106h-0.0614q-0.36868 0.5223-0.98314 0.89098-0.61447 0.36868-1.5823 0.36868zm0.21506-1.1214q1.3058 0 1.828-0.70664 0.53766-0.722 0.53766-2.166v-0.24579q0-1.5362-0.50694-2.3503-0.50694-0.82953-1.8741-0.82953-1.0907 0-1.6437 0.87562-0.53766 0.86026-0.53766 2.3196 0 1.4747 0.53766 2.2889 0.55302 0.81417 1.6591 0.81417z"/>
   <path d="m133.47 95.168-3.1184-8.2339h1.444l1.7512 4.8543q0.12289 0.33796 0.26115 0.75272 0.13825 0.41477 0.24579 0.79881 0.10753 0.38404 0.15361 0.62983h0.0615q0.0461-0.24579 0.16898-0.62983 0.12289-0.3994 0.26115-0.79881 0.13825-0.41477 0.26115-0.75272l1.7512-4.8543h1.444l-3.1338 8.2339z"/>
   <path d="m142.58 86.796q1.5054 0 2.2274 0.66055 0.722 0.66055 0.722 2.1046v5.607h-0.98315l-0.26115-1.1675h-0.0615q-0.53766 0.67591-1.1368 0.99851-0.59911 0.3226-1.6283 0.3226-1.1214 0-1.8588-0.58374-0.73736-0.59911-0.73736-1.8588 0-1.2289 0.96778-1.8895 0.96779-0.67591 2.9802-0.73736l1.3979-0.04609v-0.49158q0-1.0292-0.44549-1.4286t-1.2597-0.3994q-0.64519 0-1.2289 0.1997-0.58374 0.18434-1.0907 0.43013l-0.41476-1.0139q0.53766-0.29187 1.275-0.49158 0.73736-0.21506 1.5362-0.21506zm1.613 4.3474-1.2136 0.04609q-1.5362 0.06145-2.1353 0.49157-0.58375 0.43013-0.58375 1.2136 0 0.69128 0.41477 1.0139 0.43013 0.3226 1.0907 0.3226 1.0292 0 1.7205-0.56838 0.70664-0.58374 0.70664-1.782z"/>
   <path d="m152.04 86.78q1.4747 0 2.2274 0.722 0.75272 0.722 0.75272 2.3043v5.3612h-1.3365v-5.2691q0-1.9817-1.8434-1.9817-1.3672 0-1.8895 0.76808t-0.5223 2.2121v4.2706h-1.3518v-8.2339h1.0907l0.1997 1.1214h0.0768q0.39941-0.64519 1.106-0.95243 0.70663-0.3226 1.4901-0.3226z"/>
   <path d="m160.87 95.321q-1.106 0-1.9509-0.44549-0.8449-0.44549-1.3365-1.3826-0.47622-0.93706-0.47622-2.3964 0-1.5208 0.49158-2.4732 0.50694-0.95243 1.3826-1.3979 0.87562-0.44549 1.9817-0.44549 0.61447 0 1.1982 0.13826 0.59911 0.12289 0.96779 0.30723l-0.41476 1.1214q-0.36869-0.13826-0.86026-0.26115-0.49157-0.12289-0.9217-0.12289-2.4272 0-2.4272 3.1184 0 1.4901 0.58374 2.2889 0.59911 0.78345 1.7666 0.78345 0.66055 0 1.1828-0.13826 0.5223-0.13826 0.95243-0.33796v1.1982q-0.41477 0.21506-0.92171 0.3226-0.49157 0.12289-1.1982 0.12289z"/>
   <path d="m168.13 86.78q1.0446 0 1.8127 0.46085 0.76809 0.46085 1.1675 1.3057 0.41477 0.82953 0.41477 1.9509v0.81417h-5.6378q0.0307 1.3979 0.70664 2.1353 0.69128 0.722 1.9202 0.722 0.78345 0 1.3826-0.13826 0.61447-0.15362 1.2597-0.43013v1.1829q-0.62983 0.27651-1.2443 0.3994-0.61447 0.13826-1.4594 0.13826-1.1828 0-2.0738-0.47621t-1.3979-1.4133q-0.49157-0.93706-0.49157-2.3196 0-1.3518 0.44549-2.3196 0.46085-0.96779 1.275-1.4901 0.82953-0.5223 1.9202-0.5223zm-0.0154 1.106q-0.96779 0-1.5362 0.62983-0.55302 0.61447-0.66055 1.7205h4.1937q-0.0154-1.0446-0.49157-1.6898-0.47622-0.66055-1.5054-0.66055z"/>
   <path d="m176.53 95.321q-1.5362 0-2.4579-1.06-0.92171-1.0753-0.92171-3.1952t0.92171-3.1952q0.93706-1.0907 2.4732-1.0907 0.95243 0 1.5515 0.35332 0.61447 0.35332 0.99851 0.86026h0.0922q-0.0307-0.1997-0.0614-0.58374-0.0307-0.3994-0.0307-0.62983v-3.2874h1.3518v11.675h-1.0907l-0.1997-1.106h-0.0614q-0.36868 0.5223-0.98315 0.89098-0.61446 0.36868-1.5822 0.36868zm0.21506-1.1214q1.3058 0 1.828-0.70664 0.53766-0.722 0.53766-2.166v-0.24579q0-1.5362-0.50693-2.3503-0.50694-0.82953-1.8741-0.82953-1.0907 0-1.6437 0.87562-0.53766 0.86026-0.53766 2.3196 0 1.4747 0.53766 2.2889 0.55302 0.81417 1.6591 0.81417z"/>
  </g>
 </g>
</svg>
