<?xml version="1.0" encoding="UTF-8" standalone="no"?>
<!-- Created with Inkscape (http://www.inkscape.org/) -->

<svg
   width="1024"
   height="1024"
   viewBox="0 0 270.93333 270.93333"
   version="1.1"
   id="svg506"
   inkscape:version="1.2.1 (9c6d41e410, 2022-07-14)"
   sodipodi:docname="ads_tile_blue_light.svg"
   xmlns:inkscape="http://www.inkscape.org/namespaces/inkscape"
   xmlns:sodipodi="http://sodipodi.sourceforge.net/DTD/sodipodi-0.dtd"
   xmlns="http://www.w3.org/2000/svg"
   xmlns:svg="http://www.w3.org/2000/svg">
  <sodipodi:namedview
     id="namedview508"
     pagecolor="#ffffff"
     bordercolor="#666666"
     borderopacity="1.0"
     inkscape:showpageshadow="2"
     inkscape:pageopacity="0.0"
     inkscape:pagecheckerboard="0"
     inkscape:deskcolor="#d1d1d1"
     inkscape:document-units="px"
     showgrid="false"
     inkscape:zoom="0.77111176"
     inkscape:cx="450.64804"
     inkscape:cy="534.2935"
     inkscape:window-width="1920"
     inkscape:window-height="1009"
     inkscape:window-x="-8"
     inkscape:window-y="-8"
     inkscape:window-maximized="1"
     inkscape:current-layer="layer1" />
  <defs
     id="defs503" />
  <g
     inkscape:label="Layer 1"
     inkscape:groupmode="layer"
     id="layer1">
    <path
       id="path16513"
       style="mix-blend-mode:normal;fill:#009ddd;fill-opacity:1;fill-rule:nonzero;stroke-width:0.264583"
       d="M -2.5e-6,-2.5e-6 V 270.93333 H 270.93333 V -2.5e-6 Z" />
    <g
       id="g1224"
       transform="matrix(0.12402399,0,0,0.12402399,71.967002,73.673805)"
       style="fill:#ffffff;fill-opacity:0.25;stroke-width:2.13332">
      <path
         id="path927"
         style="mix-blend-mode:normal;fill:#ffffff;fill-opacity:0.25;fill-rule:nonzero;stroke-width:4.7887"
         d="m 405.32995,234.66 v 256 h 469.3301 v -256 z" />
      <path
         id="path16513-9"
         style="mix-blend-mode:normal;fill:#ffffff;fill-opacity:0.25;fill-rule:nonzero;stroke-width:4.7887"
         d="M 661.32995,533.3299 V 789.32994 H 874.66003 V 533.3299 Z" />
      <path
         id="path16513-5"
         style="mix-blend-mode:normal;fill:#ffffff;fill-opacity:0.25;fill-rule:nonzero;stroke-width:4.7887"
         d="m 405.32995,533.33 v 256 h 213.33008 v -256 z" />
      <path
         id="path24788"
         style="mix-blend-mode:normal;fill:#ffffff;fill-opacity:0.25;fill-rule:nonzero;stroke-width:4.7887"
         d="M 149.32995,234.66 V 789.32994 H 362.66003 V 234.66 Z" />
    </g>
    <g
       aria-label="Docking"
       id="text2150"
       style="font-size:15.3617px;line-height:1.05;fill:#ffffff;stroke-width:0.264583;fill-opacity:0.25">
      <path
         d="m 100.07327,182.94499 q 0,2.78047 -1.520805,4.19375 -1.505447,1.39791 -4.209106,1.39791 H 91.286381 V 177.5684 h 3.379574 q 1.643702,0 2.857276,0.61447 1.228936,0.61446 1.889489,1.81268 0.66055,1.19821 0.66055,2.94944 z m -1.459358,0.0461 q 0,-2.19673 -1.090681,-3.2106 -1.075319,-1.02923 -3.056978,-1.02923 h -1.797319 v 8.60255 h 1.490085 q 4.454893,0 4.454893,-4.36272 z"
         style="text-align:center;letter-spacing:5.36125px;text-anchor:middle;fill:#ffffff;fill-opacity:0.25"
         id="path2539" />
      <path
         d="m 114.83588,184.40435 q 0,2.04311 -1.0446,3.16451 -1.02923,1.12141 -2.79583,1.12141 -1.09068,0 -1.95094,-0.49158 -0.84489,-0.50693 -1.33646,-1.45936 -0.49158,-0.96778 -0.49158,-2.33498 0,-2.0431 1.01387,-3.14914 1.02924,-1.10605 2.8112,-1.10605 1.10604,0 1.96629,0.50694 0.86026,0.49157 1.33647,1.444 0.49158,0.93706 0.49158,2.30425 z m -6.22149,0 q 0,1.45937 0.56838,2.31962 0.58374,0.84489 1.8434,0.84489 1.2443,0 1.82805,-0.84489 0.58374,-0.86025 0.58374,-2.31962 0,-1.45936 -0.58374,-2.28889 -0.58375,-0.82953 -1.84341,-0.82953 -1.25966,0 -1.82804,0.82953 -0.56838,0.82953 -0.56838,2.28889 z"
         style="text-align:center;letter-spacing:5.36125px;text-anchor:middle;fill:#ffffff;fill-opacity:0.25"
         id="path2541" />
      <path
         d="m 125.63516,188.69027 q -1.10604,0 -1.95094,-0.44549 -0.84489,-0.44549 -1.33646,-1.38255 -0.47622,-0.93707 -0.47622,-2.39643 0,-1.52081 0.49158,-2.47323 0.50693,-0.95243 1.38255,-1.39792 0.87562,-0.44549 1.98166,-0.44549 0.61447,0 1.19821,0.13826 0.59911,0.12289 0.96779,0.30723 l -0.41477,1.12141 q -0.36868,-0.13826 -0.86025,-0.26115 -0.49158,-0.1229 -0.9217,-0.1229 -2.42715,0 -2.42715,3.11843 0,1.49008 0.58374,2.28889 0.59911,0.78345 1.7666,0.78345 0.66055,0 1.18285,-0.13826 0.5223,-0.13825 0.95242,-0.33795 v 1.19821 q -0.41476,0.21506 -0.9217,0.3226 -0.49157,0.12289 -1.19821,0.12289 z"
         style="text-align:center;letter-spacing:5.36125px;text-anchor:middle;fill:#ffffff;fill-opacity:0.25"
         id="path2543" />
      <path
         d="m 136.40372,176.86176 v 6.09859 q 0,0.24579 -0.0307,0.6452 -0.0154,0.3994 -0.0307,0.69127 h 0.0614 q 0.0922,-0.12289 0.27651,-0.35332 0.18434,-0.23042 0.36868,-0.46085 0.19971,-0.24578 0.33796,-0.3994 l 2.62685,-2.78047 h 1.58226 l -3.33349,3.51783 3.56391,4.71604 h -1.62834 l -2.85727,-3.84042 -0.93707,0.81417 v 3.02625 h -1.33647 v -11.67489 z"
         style="text-align:center;letter-spacing:5.36125px;text-anchor:middle;fill:#ffffff;fill-opacity:0.25"
         id="path2545" />
      <path
         d="m 149.32293,177.21508 q 0.30724,0 0.53766,0.21506 0.24579,0.1997 0.24579,0.64519 0,0.44549 -0.24579,0.66056 -0.23042,0.1997 -0.53766,0.1997 -0.33795,0 -0.56838,-0.1997 -0.23042,-0.21507 -0.23042,-0.66056 0,-0.44549 0.23042,-0.64519 0.23043,-0.21506 0.56838,-0.21506 z m 0.66056,3.0877 v 8.23387 h -1.35183 v -8.23387 z"
         style="text-align:center;letter-spacing:5.36125px;text-anchor:middle;fill:#ffffff;fill-opacity:0.25"
         id="path2547" />
      <path
         d="m 161.91954,180.14916 q 1.47472,0 2.22745,0.722 0.75272,0.722 0.75272,2.30426 v 5.36123 h -1.33647 v -5.26906 q 0,-1.98166 -1.8434,-1.98166 -1.36719,0 -1.88949,0.76808 -0.5223,0.76809 -0.5223,2.21209 v 4.27055 h -1.35183 v -8.23387 h 1.09068 l 0.1997,1.1214 h 0.0768 q 0.39941,-0.64519 1.10604,-0.95242 0.70664,-0.3226 1.49009,-0.3226 z"
         style="text-align:center;letter-spacing:5.36125px;text-anchor:middle;fill:#ffffff;fill-opacity:0.25"
         id="path2549" />
      <path
         d="m 175.72973,180.14916 q 0.81417,0 1.45936,0.30724 0.66055,0.30723 1.1214,0.93706 h 0.0768 l 0.18434,-1.09068 h 1.07532 v 8.37213 q 0,1.76659 -0.90634,2.65757 -0.89098,0.89098 -2.78047,0.89098 -1.81268,0 -2.96481,-0.5223 v -1.2443 q 1.21358,0.6452 3.04162,0.6452 1.05996,0 1.65906,-0.62983 0.61447,-0.61447 0.61447,-1.68979 v -0.3226 q 0,-0.18434 0.0154,-0.52229 0.0154,-0.35332 0.0307,-0.49158 h -0.0615 q -0.82953,1.2443 -2.55004,1.2443 -1.59762,0 -2.50396,-1.12141 -0.89098,-1.1214 -0.89098,-3.13378 0,-1.9663 0.89098,-3.11843 0.90634,-1.16749 2.4886,-1.16749 z m 0.18434,1.13677 q -1.02924,0 -1.59762,0.82953 -0.56838,0.81417 -0.56838,2.33498 0,1.52081 0.55302,2.33498 0.55302,0.79881 1.6437,0.79881 1.2443,0 1.81268,-0.66056 0.56838,-0.67591 0.56838,-2.166 v -0.32259 q 0,-1.67443 -0.58374,-2.41179 -0.58375,-0.73736 -1.82804,-0.73736 z"
         style="text-align:center;letter-spacing:5.36125px;text-anchor:middle;fill:#ffffff;fill-opacity:0.25"
         id="path2551" />
    </g>
    <g
       aria-label="Qt Advanced
"
       id="text2150-1"
       style="font-size:15.3617px;line-height:1.05;fill:#ffffff;stroke-width:0.264583;fill-opacity:0.25">
      <path
         d="m 100.61097,89.66819 q 0,2.012383 -0.814169,3.441021 -0.798808,1.413276 -2.381063,1.935574 l 2.626852,2.734383 h -1.981661 l -2.119914,-2.473234 q -0.09217,0 -0.199702,0 -0.09217,0.01536 -0.184341,0.01536 -1.705148,0 -2.841914,-0.706638 -1.121404,-0.706639 -1.674426,-1.98166 -0.553021,-1.275021 -0.553021,-2.980169 0,-1.674426 0.553021,-2.934085 0.553022,-1.275021 1.674426,-1.98166 1.136766,-0.706638 2.857276,-0.706638 1.643702,0 2.765106,0.706638 1.121404,0.691277 1.68979,1.966298 0.58374,1.25966 0.58374,2.964808 z m -8.663997,0 q 0,2.07383 0.875617,3.272042 0.875617,1.182851 2.734382,1.182851 1.858766,0 2.719021,-1.182851 0.875617,-1.198212 0.875617,-3.272042 0,-2.073829 -0.860255,-3.241318 -0.860255,-1.182851 -2.719021,-1.182851 -1.874127,0 -2.749744,1.182851 -0.875617,1.167489 -0.875617,3.241318 z"
         style="text-align:center;text-anchor:middle;fill:#ffffff;fill-opacity:0.25"
         id="path2518" />
      <path
         d="m 105.60353,94.215253 q 0.30723,0 0.62983,-0.04609 0.32259,-0.04609 0.52229,-0.122893 v 1.029234 q -0.21506,0.107532 -0.61446,0.168978 -0.39941,0.07681 -0.76809,0.07681 -0.64519,0 -1.19821,-0.215064 -0.53766,-0.230425 -0.87562,-0.783447 -0.33796,-0.553021 -0.33796,-1.551531 v -4.792851 h -1.16749 v -0.645191 l 1.18286,-0.53766 0.53766,-1.751234 h 0.7988 v 1.88949 h 2.38107 v 1.044595 h -2.38107 v 4.762127 q 0,0.752724 0.35332,1.121404 0.36868,0.353319 0.93707,0.353319 z"
         style="text-align:center;text-anchor:middle;fill:#ffffff;fill-opacity:0.25"
         id="path2520" />
      <path
         d="m 119.45978,95.167679 -1.3211,-3.394936 h -4.34736 l -1.30575,3.394936 h -1.39791 l 4.28591,-11.014339 h 1.2443 l 4.27055,11.014339 z m -1.73587,-4.623872 -1.22893,-3.318127 q -0.0461,-0.122894 -0.15362,-0.445489 -0.10753,-0.322596 -0.21507,-0.660554 -0.0922,-0.353319 -0.15361,-0.537659 -0.1229,0.476213 -0.26115,0.937064 -0.12289,0.445489 -0.21507,0.706638 l -1.24429,3.318127 z"
         style="text-align:center;text-anchor:middle;fill:#ffffff;fill-opacity:0.25"
         id="path2522" />
      <path
         d="m 125.12825,95.321296 q -1.53617,0 -2.45787,-1.059957 -0.9217,-1.075319 -0.9217,-3.195234 0,-2.119915 0.9217,-3.195234 0.93706,-1.09068 2.47323,-1.09068 0.95243,0 1.55153,0.353319 0.61447,0.353319 0.99851,0.860255 h 0.0922 q -0.0307,-0.199702 -0.0614,-0.583745 -0.0307,-0.399404 -0.0307,-0.629829 v -3.287404 h 1.35183 v 11.674892 h -1.09068 l -0.1997,-1.106043 h -0.0614 q -0.36868,0.522298 -0.98314,0.890979 -0.61447,0.368681 -1.58226,0.368681 z m 0.21506,-1.121404 q 1.30575,0 1.82805,-0.706638 0.53766,-0.722 0.53766,-2.166 v -0.245787 q 0,-1.53617 -0.50694,-2.35034 -0.50694,-0.829532 -1.87413,-0.829532 -1.09068,0 -1.6437,0.875617 -0.53766,0.860255 -0.53766,2.319616 0,1.474724 0.53766,2.288894 0.55302,0.81417 1.65906,0.81417 z"
         style="text-align:center;text-anchor:middle;fill:#ffffff;fill-opacity:0.25"
         id="path2524" />
      <path
         d="m 133.46965,95.167679 -3.11842,-8.233871 h 1.444 l 1.75123,4.854297 q 0.12289,0.337957 0.26115,0.752723 0.13825,0.414766 0.24579,0.798809 0.10753,0.384042 0.15361,0.629829 h 0.0615 q 0.0461,-0.245787 0.16898,-0.629829 0.12289,-0.399405 0.26115,-0.798809 0.13825,-0.414766 0.26115,-0.752723 l 1.75123,-4.854297 h 1.444 l -3.13379,8.233871 z"
         style="text-align:center;text-anchor:middle;fill:#ffffff;fill-opacity:0.25"
         id="path2526" />
      <path
         d="m 142.57913,86.795552 q 1.50545,0 2.22745,0.660553 0.722,0.660554 0.722,2.104553 v 5.607021 h -0.98315 l -0.26115,-1.167489 h -0.0615 q -0.53766,0.675914 -1.13676,0.99851 -0.59911,0.322596 -1.62834,0.322596 -1.12141,0 -1.85877,-0.583745 -0.73736,-0.599106 -0.73736,-1.858765 0,-1.228936 0.96778,-1.88949 0.96779,-0.675914 2.98017,-0.737361 l 1.39792,-0.04609 V 89.71427 q 0,-1.029234 -0.44549,-1.428638 -0.44549,-0.399404 -1.25966,-0.399404 -0.64519,0 -1.22894,0.199702 -0.58374,0.184341 -1.09068,0.430128 l -0.41476,-1.013872 q 0.53766,-0.291873 1.27502,-0.491575 0.73736,-0.215064 1.53617,-0.215064 z m 1.61298,4.347361 -1.21358,0.04609 q -1.53617,0.06145 -2.13527,0.491574 -0.58375,0.430128 -0.58375,1.213574 0,0.691277 0.41477,1.013872 0.43013,0.322596 1.09068,0.322596 1.02923,0 1.72051,-0.568383 0.70664,-0.583744 0.70664,-1.781957 z"
         style="text-align:center;text-anchor:middle;fill:#ffffff;fill-opacity:0.25"
         id="path2528" />
      <path
         d="m 152.04195,86.780191 q 1.47472,0 2.22745,0.722 0.75272,0.721999 0.75272,2.304255 v 5.361233 h -1.33647 v -5.269063 q 0,-1.98166 -1.8434,-1.98166 -1.36719,0 -1.88949,0.768085 -0.5223,0.768085 -0.5223,2.212085 v 4.270553 h -1.35183 v -8.233871 h 1.09068 l 0.1997,1.121404 h 0.0768 q 0.39941,-0.645192 1.10605,-0.952426 0.70663,-0.322595 1.49008,-0.322595 z"
         style="text-align:center;text-anchor:middle;fill:#ffffff;fill-opacity:0.25"
         id="path2530" />
      <path
         d="m 160.87493,95.321296 q -1.10604,0 -1.95093,-0.445489 -0.8449,-0.44549 -1.33647,-1.382553 -0.47622,-0.937064 -0.47622,-2.396426 0,-1.520808 0.49158,-2.473233 0.50694,-0.952426 1.38255,-1.397915 0.87562,-0.445489 1.98166,-0.445489 0.61447,0 1.19821,0.138255 0.59911,0.122894 0.96779,0.307234 l -0.41476,1.121404 q -0.36869,-0.138255 -0.86026,-0.261149 -0.49157,-0.122893 -0.9217,-0.122893 -2.42715,0 -2.42715,3.118425 0,1.490085 0.58374,2.288893 0.59911,0.783447 1.7666,0.783447 0.66055,0 1.18285,-0.138256 0.5223,-0.138255 0.95243,-0.337957 v 1.198213 q -0.41477,0.215063 -0.92171,0.322595 -0.49157,0.122894 -1.19821,0.122894 z"
         style="text-align:center;text-anchor:middle;fill:#ffffff;fill-opacity:0.25"
         id="path2532" />
      <path
         d="m 168.12564,86.780191 q 1.0446,0 1.81268,0.460851 0.76809,0.460851 1.16749,1.305744 0.41477,0.829532 0.41477,1.950936 v 0.81417 h -5.63775 q 0.0307,1.397915 0.70664,2.135276 0.69128,0.722 1.92021,0.722 0.78345,0 1.38256,-0.138255 0.61447,-0.153617 1.25966,-0.430128 v 1.182851 q -0.62983,0.276511 -1.2443,0.399405 -0.61447,0.138255 -1.45936,0.138255 -1.18285,0 -2.07383,-0.476213 -0.89098,-0.476213 -1.39792,-1.413276 -0.49157,-0.937064 -0.49157,-2.319617 0,-1.35183 0.44549,-2.319617 0.46085,-0.967787 1.27502,-1.490085 0.82953,-0.522297 1.92021,-0.522297 z m -0.0154,1.106042 q -0.96779,0 -1.53617,0.62983 -0.55302,0.614468 -0.66055,1.72051 h 4.19374 q -0.0154,-1.044595 -0.49157,-1.689787 -0.47622,-0.660553 -1.50545,-0.660553 z"
         style="text-align:center;text-anchor:middle;fill:#ffffff;fill-opacity:0.25"
         id="path2534" />
      <path
         d="m 176.52848,95.321296 q -1.53617,0 -2.45787,-1.059957 -0.92171,-1.075319 -0.92171,-3.195234 0,-2.119915 0.92171,-3.195234 0.93706,-1.09068 2.47323,-1.09068 0.95243,0 1.55153,0.353319 0.61447,0.353319 0.99851,0.860255 h 0.0922 q -0.0307,-0.199702 -0.0614,-0.583745 -0.0307,-0.399404 -0.0307,-0.629829 v -3.287404 h 1.35183 v 11.674892 h -1.09068 l -0.1997,-1.106043 h -0.0614 q -0.36868,0.522298 -0.98315,0.890979 -0.61446,0.368681 -1.58225,0.368681 z m 0.21506,-1.121404 q 1.30575,0 1.82804,-0.706638 0.53766,-0.722 0.53766,-2.166 v -0.245787 q 0,-1.53617 -0.50693,-2.35034 -0.50694,-0.829532 -1.87413,-0.829532 -1.09068,0 -1.6437,0.875617 -0.53766,0.860255 -0.53766,2.319616 0,1.474724 0.53766,2.288894 0.55302,0.81417 1.65906,0.81417 z"
         style="text-align:center;text-anchor:middle;fill:#ffffff;fill-opacity:0.25"
         id="path2536" />
    </g>
  </g>
</svg>
