<svg version="1.1" xmlns="http://www.w3.org/2000/svg" xmlns:xlink="http://www.w3.org/1999/xlink" viewBox="0,0,1024,1024">
	<desc>color_lens icon - Licensed under Apache License v2.0 (http://www.apache.org/licenses/LICENSE-2.0) - Created with Iconfu.com - Derivative work of Material icons (Copyright Google Inc.)</desc>
	<g fill="#03b8e5" fill-rule="nonzero" style="mix-blend-mode: normal">
		<path d="M896,469.33c0,117.76 -95.57,213.34 -213.33,213.34h-75.52c-35.41,0 -64,28.59 -64,64c0,16.21 6.4,31.15 16.21,42.24c10.24,11.52 16.64,26.45 16.64,43.09c0,35.41 -28.59,64 -64,64c-212.05,0 -384,-171.95 -384,-384c0,-212.05 171.95,-384 384,-384c212.05,0 384,152.74 384,341.33zM341.33,448c0,-35.41 -28.59,-64 -64,-64c-35.41,0 -64,28.59 -64,64c0,35.41 28.59,64 64,64c35.41,0 64,-28.59 64,-64zM469.33,277.33c0,-35.41 -28.59,-64 -64,-64c-35.41,0 -64,28.59 -64,64c0,35.41 28.59,64 64,64c35.41,0 64,-28.59 64,-64zM682.67,277.33c0,-35.41 -28.59,-64 -64,-64c-35.41,0 -64,28.59 -64,64c0,35.41 28.59,64 64,64c35.41,0 64,-28.59 64,-64zM810.67,448c0,-35.41 -28.59,-64 -64,-64c-35.41,0 -64,28.59 -64,64c0,35.41 28.59,64 64,64c35.41,0 64,-28.59 64,-64z"/>
	</g>
</svg>