<svg version="1.1" xmlns="http://www.w3.org/2000/svg" xmlns:xlink="http://www.w3.org/1999/xlink" viewBox="0,0,1024,1024">
	<desc>find_in_page icon - Licensed under Apache License v2.0 (http://www.apache.org/licenses/LICENSE-2.0) - Created with Iconfu.com - Derivative work of Material icons (Copyright Google Inc.)</desc>
	<g fill="#03b8e5" fill-rule="nonzero" style="mix-blend-mode: normal">
		<path d="M689.92,672c22.19,-33.71 35.41,-73.81 35.41,-117.33c0,-117.76 -95.57,-213.34 -213.33,-213.34c-117.76,0 -213.33,95.58 -213.33,213.34c0,117.76 95.57,213.33 213.33,213.33c43.52,0 83.63,-13.22 117.76,-35.41l189.01,189.01c-14.51,10.67 -31.57,17.07 -50.77,17.07h-512.43c-46.93,0 -84.9,-38.41 -84.9,-85.34l0.42,-682.66c0,-46.93 37.98,-85.34 84.91,-85.34h341.33l256,256v494.51zM512,426.67c70.83,0 128,57.17 128,128c0,70.83 -57.17,128 -128,128c-70.83,0 -128,-57.17 -128,-128c0,-70.83 57.17,-128 128,-128z"/>
	</g>
</svg>