<?xml version="1.0" encoding="UTF-8"?>
<svg width="1032" height="151.81" version="1.1" viewBox="0 0 1032 151.81" xmlns="http://www.w3.org/2000/svg">
 <desc>electric_iron icon - Licensed under Iconfu Standard License v1.0 (https://www.iconfu.com/iconfu_standard_license) - Incors GmbH</desc>
 <text x="1251.1022" y="1305.4956" fill="#000000" font-family="sans-serif" font-size="40px" style="line-height:1.25" xml:space="preserve"><tspan x="1251.1022" y="1305.4956"/></text>
 <g transform="scale(.14825)" stroke-width="6.7454">
  <g fill="#8f918f" aria-label="Qt Advanced Docking">
   <path d="m1416.3 726.04q-93.219 0-148.72-61.942-55.196-61.942-55.196-160.99 0-105.18 56.729-168.35 57.035-63.475 155.47-63.475 88.926 0 143.82 61.022 55.196 60.715 55.196 159.45 0 109.16-56.422 171.72-17.479 19.625-38.944 32.811l106.71 81.26h-51.209l-83.1-66.848q-37.41 15.332-84.327 15.332zm3.0664-427.15q-76.66 0-126.34 55.502-49.369 55.502-49.369 145.35 0 90.766 46.916 144.74 46.916 53.662 125.11 53.662 81.567 0 129.1-53.049 47.53-53.356 47.53-148.41 0-93.219-46.61-145.35-46.303-52.436-126.34-52.436z"/>
   <path d="m1826.9 714.08q-22.078 10.426-41.397 10.426-69.608 0-69.608-83.407v-210.97h-56.422v-25.758h56.422v-81.567q6.7461-2.4531 14.106-4.9063 7.3594-2.1465 14.106-4.5996v91.073h82.793v25.758h-82.793v207.29q0 32.504 10.119 47.223 10.426 14.412 34.957 14.412 17.479 0 37.717-11.346z"/>
   <path d="m2353.7 718.37-50.289-136.76h-190.73l-50.289 136.76h-33.424l165.89-439.72h28.824l164.05 439.72zm-134.92-367.97q-3.373-9.1993-5.5195-18.092-2.1465-7.6661-4.5997-15.332h-1.2265q-5.2129 20.238-10.119 32.811l-73.901 203.92h169.57z"/>
   <path d="m2679 718.37v-57.035h-1.2266q-15.332 29.744-45.383 47.223-30.051 17.479-67.768 17.479-57.955 0-94.752-42.317-36.49-42.317-36.49-116.83 0-76.047 39.864-122.96 40.17-47.223 103.95-47.223 70.528 0 100.58 57.955h1.2266v-201.16h28.211v464.87zm0-191.04q0-43.85-27.904-74.207-27.598-30.664-74.514-30.664-49.369 0-81.567 38.024-32.198 37.717-32.198 103.95 0 65.008 28.824 100.58 29.131 35.264 74.821 35.264 53.662 0 83.1-33.117 29.438-33.424 29.438-81.26z"/>
   <path d="m2910.8 718.37h-25.758l-121.43-314h31.584l93.526 249.91q6.7462 18.092 9.5059 32.811h1.2266q3.9864-19.318 8.8926-31.584l96.592-251.14h30.664z"/>
   <path d="m3280 718.37v-62.862h-1.2265q-15.026 32.197-43.85 51.516-28.518 19.012-63.475 19.012-44.77 0-70.834-25.145t-26.065-63.475q0-82.18 108.86-99.352l96.592-14.412q0-101.19-76.047-101.19-51.822 0-100.89 41.703v-34.037q17.479-13.799 47.223-23.611 30.051-9.8126 56.422-9.8126 48.449 0 74.821 30.051 26.678 30.051 26.678 87.393v204.22zm-86.473-156.39q-49.369 7.0528-69.301 22.998-19.932 15.639-19.932 51.209 0 27.904 18.398 45.996 18.705 18.092 51.822 18.092 45.383 0 75.434-33.424 30.051-33.731 30.051-86.78v-30.664z"/>
   <path d="m3616.1 718.37v-182.76q0-113.15-81.567-113.15-45.383 0-74.514 33.424-29.131 33.117-29.131 82.18v180.31h-28.211v-314h28.211v57.035h1.2266q34.344-64.701 107.32-64.701 50.903 0 77.887 34.037 26.984 33.731 26.984 96.592v191.04z"/>
   <path d="m3942.1 704.57q-34.957 21.465-83.407 21.465-64.088 0-103.34-43.85-39.25-44.156-39.25-115.3 0-74.821 44.156-122.35 44.156-47.836 113.46-47.836 35.877 0 69.608 14.719v31.891q-33.731-20.852-73.901-20.852-55.196 0-89.54 39.863-34.344 39.557-34.344 102.73 0 61.022 31.278 98.125 31.584 37.104 83.1 37.104 47.223 0 82.18-25.145z"/>
   <path d="m4024.3 562.6q0 64.701 29.744 101.19 30.051 36.49 82.18 36.49 52.742 0 103.03-38.944v30.051q-48.756 34.651-108.86 34.651-60.715 0-98.126-43.543-37.41-43.543-37.41-122.96 0-68.688 38.944-115.6 39.25-47.223 101.81-47.223 58.569 0 89.846 41.09t31.278 112.23v12.572zm203-25.758q-1.8399-54.276-26.065-84.327-24.225-30.051-66.848-30.051-44.156 0-73.287 29.744-28.824 29.438-35.57 84.633z"/>
   <path d="m4557.5 718.37v-57.035h-1.2266q-15.332 29.744-45.383 47.223-30.051 17.479-67.768 17.479-57.955 0-94.752-42.317-36.49-42.317-36.49-116.83 0-76.047 39.863-122.96 40.17-47.223 103.95-47.223 70.528 0 100.58 57.955h1.2266v-201.16h28.211v464.87zm0-191.04q0-43.85-27.904-74.207-27.598-30.664-74.514-30.664-49.369 0-81.567 38.024-32.197 37.717-32.197 103.95 0 65.008 28.824 100.58 29.131 35.264 74.821 35.264 53.662 0 83.1-33.117 29.438-33.424 29.438-81.26z"/>
   <path d="m4864.5 718.37v-439.72h110.08q109.47 0 166.51 54.582 57.035 54.582 57.035 159.15 0 100.58-61.328 163.44-61.022 62.555-168.65 62.555zm30.358-411.82v384.22h68.994q97.819 0 150.25-50.596 52.436-50.903 52.436-146.57 0-187.05-196.56-187.05z"/>
   <path d="m5407.5 726.04q-68.688 0-108.86-45.076-39.863-45.383-39.863-117.75 0-78.194 41.703-122.35 42.01-44.156 110.39-44.156 67.155 0 106.1 43.85 38.944 43.85 38.944 121.43 0 73.287-39.863 118.67-39.557 45.383-108.55 45.383zm2.1465-303.58q-55.502 0-88.62 37.41-32.811 37.41-32.811 103.95 0 61.635 32.197 99.045 32.197 37.41 88.006 37.41 56.729 0 87.393-36.797t30.664-102.11q0-67.155-30.664-103.03-30.358-35.877-86.166-35.877z"/>
   <path d="m5837.1 704.57q-34.957 21.465-83.407 21.465-64.088 0-103.34-43.85-39.25-44.156-39.25-115.3 0-74.821 44.156-122.35 44.156-47.836 113.46-47.836 35.877 0 69.608 14.719v31.891q-33.731-20.852-73.901-20.852-55.196 0-89.54 39.863-34.344 39.557-34.344 102.73 0 61.022 31.278 98.125 31.584 37.104 83.1 37.104 47.223 0 82.18-25.145z"/>
   <path d="m6092.2 718.37-150.25-155.16h-1.2266v155.16h-28.211v-464.87h28.211v299.59h1.2266l142.59-148.72h36.49l-149.03 152.09 160.99 161.91z"/>
   <path d="m6205.1 325.26q-9.1992 0-16.252-6.7461-7.0528-6.7461-7.0528-17.172 0-10.119 7.0528-16.252 7.3594-6.4395 16.252-6.4395 9.506 0 16.559 6.1328 7.3594 6.1328 7.3594 16.559 0 9.8126-7.0527 16.865-7.0528 7.0528-16.865 7.0528zm-13.799 393.12v-314h28.211v314z"/>
   <path d="m6533.5 718.37v-182.76q0-113.15-81.567-113.15-45.383 0-74.514 33.424-29.131 33.117-29.131 82.18v180.31h-28.211v-314h28.211v57.035h1.2265q34.344-64.701 107.32-64.701 50.902 0 77.887 34.037 26.984 33.731 26.984 96.592v191.04z"/>
   <path d="m6907.3 695.07q0 88.62-38.637 129.71-38.637 41.09-120.2 41.09-45.383 0-93.526-23.918v-29.438q49.676 27.598 94.139 27.598 130.02 0 130.02-137.38v-40.783h-1.2266q-37.104 64.088-113.15 64.088-57.955 0-94.752-42.01-36.49-42.01-36.49-117.14t39.557-122.66q39.557-47.53 104.26-47.53 69.301 0 100.58 57.342h1.2266v-49.676h28.211zm-28.211-170.19q0-41.703-28.211-72.061-27.904-30.358-72.981-30.358-51.822 0-83.407 38.944-31.584 38.944-31.584 103.03 0 64.395 28.824 100.27 29.131 35.57 76.66 35.57 50.596 0 80.647-32.811 30.051-32.811 30.051-80.34z"/>
  </g>
  <g transform="translate(581.23 1750.5)">
   <path d="m191.64-726.53h-521.75c-138.69 0-251.12-112.43-251.12-251.12v-521.75c0-138.69 112.43-251.12 251.12-251.12h521.75c138.69 0 251.12 112.43 251.12 251.12v521.75c0 138.69-112.43 251.12-251.12 251.12z" fill="#e0e0e0" style="mix-blend-mode:normal"/>
   <path d="m-175.9-1515.9v256h469.33v-256z" fill="#009ddd" style="mix-blend-mode:normal"/>
   <path d="m80.1-1217.2v256h213.33v-256z" fill="#ff9833" style="mix-blend-mode:normal"/>
   <path d="m-175.9-1217.2v256h213.33v-256z" fill="#accb01" style="mix-blend-mode:normal"/>
   <path d="m-431.9-1515.9v554.67h213.33v-554.67z" fill="#0083c3" style="mix-blend-mode:normal"/>
  </g>
 </g>
</svg>
