<?xml version="1.0" encoding="UTF-8" standalone="no"?>
<svg
   xmlns:dc="http://purl.org/dc/elements/1.1/"
   xmlns:cc="http://creativecommons.org/ns#"
   xmlns:rdf="http://www.w3.org/1999/02/22-rdf-syntax-ns#"
   xmlns:svg="http://www.w3.org/2000/svg"
   xmlns="http://www.w3.org/2000/svg"
   xmlns:sodipodi="http://sodipodi.sourceforge.net/DTD/sodipodi-0.dtd"
   xmlns:inkscape="http://www.inkscape.org/namespaces/inkscape"
   x="0"
   y="0"
   width="512"
   height="512"
   version="1.1"
   viewBox="0 0 512 512"
   id="svg4554"
   sodipodi:docname="close.svg"
   inkscape:version="0.92.3 (2405546, 2018-03-11)">
  <metadata
     id="metadata4560">
    <rdf:RDF>
      <cc:Work
         rdf:about="">
        <dc:format>image/svg+xml</dc:format>
        <dc:type
           rdf:resource="http://purl.org/dc/dcmitype/StillImage" />
      </cc:Work>
    </rdf:RDF>
  </metadata>
  <defs
     id="defs4558" />
  <sodipodi:namedview
     pagecolor="#ffffff"
     bordercolor="#666666"
     borderopacity="1"
     objecttolerance="10"
     gridtolerance="10"
     guidetolerance="10"
     inkscape:pageopacity="0"
     inkscape:pageshadow="2"
     inkscape:window-width="1920"
     inkscape:window-height="1017"
     id="namedview4556"
     showgrid="false"
     inkscape:zoom="1.296875"
     inkscape:cx="256"
     inkscape:cy="256"
     inkscape:window-x="1912"
     inkscape:window-y="-8"
     inkscape:window-maximized="1"
     inkscape:current-layer="svg4554" />
  <title
     id="title4540">close icon</title>
  <desc
     id="desc4542">close icon from the IconExperience.com G-Collection. Copyright by INCORS GmbH (www.incors.com).</desc>
  <path
     style="fill:#d74214"
     inkscape:connector-curvature="0"
     id="path4544"
     d="m 48,32 h 416 c 8.8,0 16,7.2 16,16 v 416 c 0,8.8 -7.2,16 -16,16 H 48 c -8.8,0 -16,-7.2 -16,-16 V 48 c 0,-8.8 7.2,-16 16,-16 z" />
  <path
     style="fill:#bd360c"
     inkscape:connector-curvature="0"
     id="path4546"
     d="m 475.3,36.7 c 2.9,2.9 4.7,6.9 4.7,11.3 v 416 c 0,8.8 -7.2,16 -16,16 H 48 c -4.4,0 -8.4,-1.8 -11.3,-4.7 z" />
  <polygon
     style="fill:#ffffff"
     id="polygon4548"
     points="323.9,256 425.7,357.8 357.8,425.7 256,323.9 154.2,425.7 86.3,357.8 188.1,256 86.3,154.2 154.2,86.3 256,188.1 357.8,86.3 425.7,154.2 " />
  <polygon
     style="fill:#000002;fill-opacity:1"
     id="polygon4550"
     points="323.9,256 425.7,357.8 357.8,425.7 256,323.9 154.2,425.7 120.25,391.75 391.75,120.25 425.7,154.2 " />
</svg>
